<svg width="288" height="192" viewBox="0 0 288 192" fill="none" xmlns="http://www.w3.org/2000/svg">
<rect width="288" height="192" fill="white"/>
<path d="M37.5 41.8868C40.594 40.1004 44.406 40.1004 47.5 41.8868L74.3061 57.3632C77.4001 59.1496 79.3061 62.4508 79.3061 66.0235V96.9765C79.3061 100.549 77.4001 103.85 74.3061 105.637L47.5 121.113C44.406 122.9 40.594 122.9 37.5 121.113L10.6939 105.637C7.59991 103.85 5.69392 100.549 5.69392 96.9765V66.0235C5.69392 62.4508 7.59991 59.1496 10.6939 57.3632L37.5 41.8868Z" fill="#1871C3"/>
<path d="M78 109.887C81.094 108.1 84.906 108.1 88 109.887L101.383 117.613C104.477 119.4 106.383 122.701 106.383 126.274V141.726C106.383 145.299 104.477 148.6 101.383 150.387L88 158.113C84.906 159.9 81.094 159.9 78 158.113L64.6173 150.387C61.5233 148.6 59.6173 145.299 59.6173 141.726V126.274C59.6173 122.701 61.5233 119.4 64.6173 117.613L78 109.887Z" fill="#D32F2F"/>
<path d="M158 2.88675C161.094 1.10042 164.906 1.10042 168 2.88675L181.383 10.6132C184.477 12.3996 186.383 15.7008 186.383 19.2735V34.7265C186.383 38.2992 184.477 41.6004 181.383 43.3868L168 51.1132C164.906 52.8996 161.094 52.8996 158 51.1132L144.617 43.3868C141.523 41.6004 139.617 38.2992 139.617 34.7265V19.2735C139.617 15.7008 141.523 12.3996 144.617 10.6132L158 2.88675Z" fill="#1871C3"/>
<path d="M240.5 109.887C243.594 108.1 247.406 108.1 250.5 109.887L277.306 125.363C280.4 127.15 282.306 130.451 282.306 134.024V164.976C282.306 168.549 280.4 171.85 277.306 173.637L250.5 189.113C247.406 190.9 243.594 190.9 240.5 189.113L213.694 173.637C210.6 171.85 208.694 168.549 208.694 164.976V134.024C208.694 130.451 210.6 127.15 213.694 125.363L240.5 109.887Z" fill="#D32F2F"/>
<path d="M198.5 41.8868C201.594 40.1004 205.406 40.1004 208.5 41.8868L235.306 57.3632C238.4 59.1496 240.306 62.4508 240.306 66.0235V96.9765C240.306 100.549 238.4 103.85 235.306 105.637L208.5 121.113C205.406 122.9 201.594 122.9 198.5 121.113L171.694 105.637C168.6 103.85 166.694 100.549 166.694 96.9765V66.0235C166.694 62.4508 168.6 59.1496 171.694 57.3632L198.5 41.8868Z" fill="#1871C3"/>
<path d="M118.5 41.8868C121.594 40.1004 125.406 40.1004 128.5 41.8868L155.306 57.3632C158.4 59.1496 160.306 62.4508 160.306 66.0235V96.9765C160.306 100.549 158.4 103.85 155.306 105.637L128.5 121.113C125.406 122.9 121.594 122.9 118.5 121.113L91.6939 105.637C88.5999 103.85 86.6939 100.549 86.6939 96.9765V66.0235C86.6939 62.4508 88.5999 59.1496 91.6939 57.3632L118.5 41.8868Z" fill="#D32F2F"/>
<path d="M50.6484 82.6758H39.3984V90.293H52.6016V95H33.5391V66.5625H52.5625V71.3086H39.3984V78.0859H50.6484V82.6758Z" fill="white"/>
<path d="M246.715 144.367L252.047 134.562H258.785L250.504 148.664L259 163H252.184L246.715 153.039L241.246 163H234.43L242.926 148.664L234.645 134.562H241.383L246.715 144.367Z" fill="white"/>
<path d="M211.648 82.6758H200.398V90.293H213.602V95H194.539V66.5625H213.562V71.3086H200.398V78.0859H211.648V82.6758Z" fill="white"/>
<path d="M115.195 66.5625L122.5 87.1875L129.766 66.5625H137.461V95H131.582V87.2266L132.168 73.8086L124.492 95H120.469L112.812 73.8281L113.398 87.2266V95H107.539V66.5625H115.195Z" fill="white"/>
</svg>
